<?xml version="1.0" standalone="no"?>
<!DOCTYPE svg PUBLIC "-//W3C//DTD SVG 20010904//EN"
 "http://www.w3.org/TR/2001/REC-SVG-20010904/DTD/svg10.dtd">
<svg version="1.0" xmlns="http://www.w3.org/2000/svg"
 width="700.000000pt" height="700.000000pt" viewBox="0 0 700.000000 700.000000"
 preserveAspectRatio="xMidYMid meet">
<metadata>
Created by potrace 1.11, written by Peter Selinger 2001-2013
</metadata>
<g transform="translate(0.000000,700.000000) scale(0.100000,-0.100000)"
fill="#000000" stroke="none">
<path d="M6645 4841 c-2 -2 -64 -5 -137 -6 -174 -5 -488 -14 -658 -20 -74 -3
-214 -7 -310 -10 -96 -3 -238 -7 -315 -10 -233 -8 -717 -22 -998 -30 -86 -2
-162 -7 -167 -10 -6 -3 -10 -1 -10 5 0 6 -5 8 -11 5 -5 -4 -65 -8 -132 -10
-119 -4 -334 -10 -647 -20 -85 -3 -227 -7 -315 -10 -88 -3 -232 -7 -320 -10
-88 -3 -234 -7 -325 -10 -91 -3 -241 -7 -335 -10 -93 -3 -235 -8 -315 -10 -80
-3 -219 -7 -310 -10 -360 -11 -513 -16 -690 -20 -102 -3 -190 -7 -196 -9 -10
-4 -15 -25 -30 -116 -2 -8 -5 -26 -8 -40 -3 -14 -10 -56 -17 -95 -6 -38 -13
-79 -15 -90 -2 -11 -6 -36 -9 -55 -4 -19 -8 -46 -11 -60 -3 -14 -9 -50 -14
-80 -6 -30 -12 -65 -14 -76 -6 -28 -17 -94 -21 -119 -2 -11 -8 -47 -14 -80 -6
-33 -13 -73 -16 -90 -2 -16 -7 -39 -9 -50 -2 -11 -7 -40 -11 -65 -8 -49 -10
-59 -26 -140 -5 -30 -12 -66 -14 -80 -2 -14 -11 -65 -20 -115 -9 -49 -18 -101
-20 -115 -2 -14 -7 -36 -10 -50 -3 -14 -7 -43 -10 -65 -3 -22 -10 -62 -15 -90
-16 -74 -24 -126 -24 -160 -1 -16 -4 -32 -8 -35 -3 -3 -9 -28 -12 -55 -4 -27
-8 -57 -11 -65 -5 -18 -13 -61 -20 -110 -3 -19 -8 -46 -11 -60 -7 -31 -12 -55
-19 -100 -3 -19 -10 -60 -15 -90 -21 -120 -22 -140 -11 -141 19 -1 111 0 114
1 1 1 58 3 127 5 69 2 204 6 300 9 429 14 562 18 668 20 61 2 115 6 118 9 4 3
14 2 24 -3 10 -5 20 -7 23 -4 3 3 70 7 148 9 202 5 499 14 664 20 77 3 219 7
315 10 96 3 240 8 320 10 80 3 219 7 310 10 308 9 535 16 660 21 69 3 134 4
145 4 27 -2 22 -2 170 4 72 3 218 7 325 11 107 3 258 8 335 10 129 4 324 10
645 20 69 2 206 6 305 10 99 3 254 8 345 10 481 14 473 13 476 36 1 5 3 10 4
12 2 2 3 11 14 92 3 22 5 40 6 40 2 0 8 32 14 70 3 17 8 42 11 57 3 16 7 40 9
55 3 16 7 42 10 58 3 17 9 46 12 65 9 50 12 71 19 105 8 46 16 95 20 124 2 14
4 26 5 26 2 0 6 22 14 70 4 22 9 54 12 70 3 17 7 41 9 55 9 52 16 96 21 120 3
14 7 36 10 50 6 35 12 65 14 65 1 0 3 16 4 35 2 19 6 50 10 68 3 17 8 44 11
60 3 15 7 38 10 52 3 14 7 41 10 60 3 19 7 46 10 60 7 36 16 81 20 110 2 14 7
37 9 51 3 14 8 39 10 55 2 16 6 36 9 44 3 8 9 40 12 70 8 65 12 86 20 120 4
14 8 45 11 69 2 24 7 47 9 52 3 4 8 27 11 51 6 44 9 66 20 116 3 15 6 35 7 45
1 9 5 17 10 17 4 0 5 4 2 10 -3 5 1 46 10 91 8 45 15 85 15 90 0 8 -337 9
-345 0z"/>
</g>
</svg>
